<mxfile host="65bd71144e">
    <diagram id="PwKEUhgBtld1rCudASjT" name="Page-1">
        <mxGraphModel dx="490" dy="419" grid="1" gridSize="10" guides="1" tooltips="1" connect="1" arrows="1" fold="1" page="1" pageScale="1" pageWidth="850" pageHeight="1100" math="0" shadow="0">
            <root>
                <mxCell id="0"/>
                <mxCell id="1" parent="0"/>
                <mxCell id="2" value="" style="rounded=1;whiteSpace=wrap;html=1;fillColor=#BAC8D3;strokeColor=#23445d;fontColor=#000000;" parent="1" vertex="1">
                    <mxGeometry x="65" y="30" width="310" height="350" as="geometry"/>
                </mxCell>
                <mxCell id="3" value="ANSWER 1" style="rounded=1;whiteSpace=wrap;html=1;movable=1;resizable=1;rotatable=1;deletable=1;editable=1;connectable=1;fontStyle=1;fontColor=#FFFFFF;fillColor=#000000;strokeColor=none;" parent="1" vertex="1">
                    <mxGeometry x="80" y="80" width="280" height="60" as="geometry"/>
                </mxCell>
                <mxCell id="4" value="ANSWER 2" style="rounded=1;whiteSpace=wrap;html=1;movable=1;resizable=1;rotatable=1;deletable=1;editable=1;connectable=1;fontStyle=1;fontColor=#FFFFFF;fillColor=#000000;strokeColor=none;" parent="1" vertex="1">
                    <mxGeometry x="80" y="150" width="280" height="60" as="geometry"/>
                </mxCell>
                <mxCell id="5" value="ANSWER 3" style="rounded=1;whiteSpace=wrap;html=1;movable=1;resizable=1;rotatable=1;deletable=1;editable=1;connectable=1;fontStyle=1;fontColor=#FFFFFF;fillColor=#000000;strokeColor=none;" parent="1" vertex="1">
                    <mxGeometry x="80" y="220" width="280" height="60" as="geometry"/>
                </mxCell>
                <mxCell id="6" value="ANSWER 4" style="rounded=1;whiteSpace=wrap;html=1;movable=1;resizable=1;rotatable=1;deletable=1;editable=1;connectable=1;fontStyle=1;fontColor=#FFFFFF;fillColor=#000000;strokeColor=none;" parent="1" vertex="1">
                    <mxGeometry x="80" y="290" width="280" height="60" as="geometry"/>
                </mxCell>
                <mxCell id="7" value="QUESTION" style="text;html=1;strokeColor=none;fillColor=none;align=center;verticalAlign=middle;whiteSpace=wrap;rounded=0;fontColor=#000000;" parent="1" vertex="1">
                    <mxGeometry x="130" y="40" width="180" height="30" as="geometry"/>
                </mxCell>
                <mxCell id="33" value="" style="rounded=1;whiteSpace=wrap;html=1;strokeColor=#363636;fontColor=#FFFFFF;fillColor=#000000;" parent="1" vertex="1">
                    <mxGeometry x="40" y="600" width="700" height="360" as="geometry"/>
                </mxCell>
                <mxCell id="34" value="&lt;font style=&quot;font-size: 25px;&quot;&gt;OUR RECOMENDATIONS&lt;/font&gt;" style="rounded=1;whiteSpace=wrap;html=1;strokeColor=none;fontColor=#FFFFFF;fillColor=#000000;fontStyle=0;align=center;" parent="1" vertex="1">
                    <mxGeometry x="80" y="610" width="400" height="60" as="geometry"/>
                </mxCell>
                <mxCell id="35" value="" style="rounded=1;whiteSpace=wrap;html=1;strokeColor=#363636;fontSize=25;fontColor=#FFFFFF;fillColor=#000000;shadow=1;movable=1;resizable=1;rotatable=1;deletable=1;editable=1;connectable=1;" parent="1" vertex="1">
                    <mxGeometry x="60" y="670" width="210" height="260" as="geometry"/>
                </mxCell>
                <mxCell id="38" value="" style="rounded=1;whiteSpace=wrap;html=1;strokeColor=#363636;fontSize=25;fontColor=#FFFFFF;fillColor=#000000;shadow=1;movable=1;resizable=1;rotatable=1;deletable=1;editable=1;connectable=1;" parent="1" vertex="1">
                    <mxGeometry x="280" y="670" width="210" height="260" as="geometry"/>
                </mxCell>
                <mxCell id="39" value="" style="rounded=1;whiteSpace=wrap;html=1;strokeColor=#363636;fontSize=25;fontColor=#FFFFFF;fillColor=#000000;shadow=1;glass=0;movable=1;resizable=1;rotatable=1;deletable=1;editable=1;connectable=1;" parent="1" vertex="1">
                    <mxGeometry x="500" y="670" width="210" height="260" as="geometry"/>
                </mxCell>
                <mxCell id="42" value="&lt;font style=&quot;font-size: 17px;&quot; color=&quot;#ffffff&quot;&gt;See More&lt;/font&gt;" style="text;html=1;strokeColor=none;fillColor=none;align=center;verticalAlign=middle;whiteSpace=wrap;rounded=0;shadow=1;glass=0;sketch=0;fontSize=13;fontColor=#000000;fontStyle=1" parent="1" vertex="1">
                    <mxGeometry x="580" y="625" width="90" height="30" as="geometry"/>
                </mxCell>
            </root>
        </mxGraphModel>
    </diagram>
    <diagram id="rh2PC56Di0f4xqpiZgdJ" name="Page-2">
        <mxGraphModel dx="490" dy="419" grid="1" gridSize="10" guides="1" tooltips="1" connect="1" arrows="1" fold="1" page="1" pageScale="1" pageWidth="850" pageHeight="1100" math="0" shadow="0">
            <root>
                <mxCell id="0"/>
                <mxCell id="1" parent="0"/>
                <mxCell id="l3RP_Rlk8MqlteFbM0D3-1" value="86" style="rounded=1;whiteSpace=wrap;html=1;fontColor=#FFFFFF;fillColor=#BAC8D3;strokeColor=#011616;fillStyle=auto;" parent="1" vertex="1">
                    <mxGeometry x="430" y="20" width="380" height="710" as="geometry"/>
                </mxCell>
                <mxCell id="GJfcpdvK_InbkSFuC8xC-1" value="Question - Your Anwser" style="rounded=1;whiteSpace=wrap;html=1;fontColor=#FFFFFF;fillColor=#000000;strokeColor=#F01616;" parent="1" vertex="1">
                    <mxGeometry x="450" y="80" width="340" height="60" as="geometry"/>
                </mxCell>
                <mxCell id="GJfcpdvK_InbkSFuC8xC-2" value="&#10;&lt;span style=&quot;color: rgb(255, 255, 255); font-family: Helvetica; font-size: 12px; font-style: normal; font-variant-ligatures: normal; font-variant-caps: normal; font-weight: 400; letter-spacing: normal; orphans: 2; text-indent: 0px; text-transform: none; widows: 2; word-spacing: 0px; -webkit-text-stroke-width: 0px; background-color: rgb(42, 37, 47); text-decoration-thickness: initial; text-decoration-style: initial; text-decoration-color: initial; float: none; display: inline !important;&quot;&gt;Question - Your Anwser&lt;/span&gt;&#10;&#10;" style="rounded=1;whiteSpace=wrap;html=1;fontColor=#FFFFFF;fillColor=#000000;align=center;strokeColor=#F01616;" parent="1" vertex="1">
                    <mxGeometry x="450" y="160" width="340" height="60" as="geometry"/>
                </mxCell>
                <mxCell id="GJfcpdvK_InbkSFuC8xC-3" value="&#10;&lt;span style=&quot;color: rgb(255, 255, 255); font-family: Helvetica; font-size: 12px; font-style: normal; font-variant-ligatures: normal; font-variant-caps: normal; font-weight: 400; letter-spacing: normal; orphans: 2; text-indent: 0px; text-transform: none; widows: 2; word-spacing: 0px; -webkit-text-stroke-width: 0px; background-color: rgb(42, 37, 47); text-decoration-thickness: initial; text-decoration-style: initial; text-decoration-color: initial; float: none; display: inline !important;&quot;&gt;Question - Your Anwser&lt;/span&gt;&#10;&#10;" style="rounded=1;whiteSpace=wrap;html=1;fontColor=#FFFFFF;fillColor=#000000;align=center;strokeColor=#F01616;" parent="1" vertex="1">
                    <mxGeometry x="450" y="240" width="340" height="60" as="geometry"/>
                </mxCell>
                <mxCell id="GJfcpdvK_InbkSFuC8xC-4" value="&#10;&lt;span style=&quot;color: rgb(255, 255, 255); font-family: Helvetica; font-size: 12px; font-style: normal; font-variant-ligatures: normal; font-variant-caps: normal; font-weight: 400; letter-spacing: normal; orphans: 2; text-indent: 0px; text-transform: none; widows: 2; word-spacing: 0px; -webkit-text-stroke-width: 0px; background-color: rgb(42, 37, 47); text-decoration-thickness: initial; text-decoration-style: initial; text-decoration-color: initial; float: none; display: inline !important;&quot;&gt;Question - Your Anwser&lt;/span&gt;&#10;&#10;" style="rounded=1;whiteSpace=wrap;html=1;fontColor=#FFFFFF;fillColor=#000000;align=center;strokeColor=#F01616;" parent="1" vertex="1">
                    <mxGeometry x="450" y="320" width="340" height="60" as="geometry"/>
                </mxCell>
                <mxCell id="GJfcpdvK_InbkSFuC8xC-5" value="&#10;&lt;span style=&quot;color: rgb(255, 255, 255); font-family: Helvetica; font-size: 12px; font-style: normal; font-variant-ligatures: normal; font-variant-caps: normal; font-weight: 400; letter-spacing: normal; orphans: 2; text-indent: 0px; text-transform: none; widows: 2; word-spacing: 0px; -webkit-text-stroke-width: 0px; background-color: rgb(42, 37, 47); text-decoration-thickness: initial; text-decoration-style: initial; text-decoration-color: initial; float: none; display: inline !important;&quot;&gt;Question - Your Anwser&lt;/span&gt;&#10;&#10;" style="rounded=1;whiteSpace=wrap;html=1;fontColor=#FFFFFF;fillColor=#000000;align=center;strokeColor=#F01616;" parent="1" vertex="1">
                    <mxGeometry x="450" y="560" width="340" height="60" as="geometry"/>
                </mxCell>
                <mxCell id="GJfcpdvK_InbkSFuC8xC-6" value="&#10;&lt;span style=&quot;color: rgb(255, 255, 255); font-family: Helvetica; font-size: 12px; font-style: normal; font-variant-ligatures: normal; font-variant-caps: normal; font-weight: 400; letter-spacing: normal; orphans: 2; text-indent: 0px; text-transform: none; widows: 2; word-spacing: 0px; -webkit-text-stroke-width: 0px; background-color: rgb(42, 37, 47); text-decoration-thickness: initial; text-decoration-style: initial; text-decoration-color: initial; float: none; display: inline !important;&quot;&gt;Question - Your Anwser&lt;/span&gt;&#10;&#10;" style="rounded=1;whiteSpace=wrap;html=1;fontColor=#FFFFFF;fillColor=#000000;align=center;strokeColor=#F01616;" parent="1" vertex="1">
                    <mxGeometry x="450" y="480" width="340" height="60" as="geometry"/>
                </mxCell>
                <mxCell id="GJfcpdvK_InbkSFuC8xC-7" value="&#10;&lt;span style=&quot;color: rgb(255, 255, 255); font-family: Helvetica; font-size: 12px; font-style: normal; font-variant-ligatures: normal; font-variant-caps: normal; font-weight: 400; letter-spacing: normal; orphans: 2; text-indent: 0px; text-transform: none; widows: 2; word-spacing: 0px; -webkit-text-stroke-width: 0px; background-color: rgb(42, 37, 47); text-decoration-thickness: initial; text-decoration-style: initial; text-decoration-color: initial; float: none; display: inline !important;&quot;&gt;Question - Your Anwser&lt;/span&gt;&#10;&#10;" style="rounded=1;whiteSpace=wrap;html=1;fontColor=#FFFFFF;fillColor=#000000;align=center;strokeColor=#F01616;" parent="1" vertex="1">
                    <mxGeometry x="450" y="400" width="340" height="60" as="geometry"/>
                </mxCell>
                <mxCell id="GJfcpdvK_InbkSFuC8xC-8" value="&#10;&lt;span style=&quot;color: rgb(255, 255, 255); font-family: Helvetica; font-size: 12px; font-style: normal; font-variant-ligatures: normal; font-variant-caps: normal; font-weight: 400; letter-spacing: normal; orphans: 2; text-align: center; text-indent: 0px; text-transform: none; widows: 2; word-spacing: 0px; -webkit-text-stroke-width: 0px; background-color: rgb(42, 37, 47); text-decoration-thickness: initial; text-decoration-style: initial; text-decoration-color: initial; float: none; display: inline !important;&quot;&gt;Question - Your Anwser&lt;/span&gt;&#10;&#10;" style="rounded=1;whiteSpace=wrap;html=1;fontColor=#FFFFFF;fillColor=#000000;strokeColor=#F01616;" parent="1" vertex="1">
                    <mxGeometry x="450" y="640" width="340" height="60" as="geometry"/>
                </mxCell>
                <mxCell id="GJfcpdvK_InbkSFuC8xC-9" value="Your Answers" style="text;html=1;strokeColor=none;fillColor=none;align=center;verticalAlign=middle;whiteSpace=wrap;rounded=0;fontColor=#030303;fontSize=19;" parent="1" vertex="1">
                    <mxGeometry x="555" y="40" width="130" height="30" as="geometry"/>
                </mxCell>
                <mxCell id="JGnlPxY4ueE_5bmmsMdA-2" value="" style="rounded=1;whiteSpace=wrap;html=1;fillStyle=auto;strokeColor=#011616;fontSize=19;fontColor=#030303;fillColor=#BAC8D3;arcSize=7;" parent="1" vertex="1">
                    <mxGeometry x="10" y="750" width="830" height="500" as="geometry"/>
                </mxCell>
                <mxCell id="vNl0-WOMCng2MXzCXxHB-1" value="Ask our chat any question regarding computer issues" style="text;html=1;strokeColor=none;fillColor=none;align=center;verticalAlign=middle;whiteSpace=wrap;rounded=0;fillStyle=auto;fontSize=19;fontColor=#030303;" parent="1" vertex="1">
                    <mxGeometry x="31" y="770" width="649" height="30" as="geometry"/>
                </mxCell>
                <mxCell id="vNl0-WOMCng2MXzCXxHB-2" value="Type your question" style="rounded=1;whiteSpace=wrap;html=1;fillStyle=auto;strokeColor=#011616;fontSize=19;fontColor=#030303;fillColor=#BAC8D3;arcSize=9;align=left;opacity=75;" parent="1" vertex="1">
                    <mxGeometry x="21" y="1160" width="809" height="60" as="geometry"/>
                </mxCell>
            </root>
        </mxGraphModel>
    </diagram>
    <diagram id="sLYYi6w1LiPxMq0bna9T" name="Page-3">
        <mxGraphModel dx="490" dy="419" grid="1" gridSize="10" guides="1" tooltips="1" connect="1" arrows="1" fold="1" page="1" pageScale="1" pageWidth="850" pageHeight="1100" math="0" shadow="0">
            <root>
                <mxCell id="0"/>
                <mxCell id="1" parent="0"/>
                <mxCell id="GxjmC_2MhTYPyJpv6Yr3-1" value="" style="rounded=0;whiteSpace=wrap;html=1;" parent="1" vertex="1">
                    <mxGeometry x="35" y="40" width="775" height="1400" as="geometry"/>
                </mxCell>
                <mxCell id="GxjmC_2MhTYPyJpv6Yr3-2" value="Amazon Recommendations" style="rounded=0;whiteSpace=wrap;html=1;fontSize=24;align=left;fontStyle=1" parent="1" vertex="1">
                    <mxGeometry x="50" y="60" width="750" height="60" as="geometry"/>
                </mxCell>
                <mxCell id="GxjmC_2MhTYPyJpv6Yr3-5" value="Computers" style="rounded=0;whiteSpace=wrap;html=1;fontSize=24;" parent="1" vertex="1">
                    <mxGeometry x="50" y="220" width="750" height="60" as="geometry"/>
                </mxCell>
                <mxCell id="GxjmC_2MhTYPyJpv6Yr3-6" value="Keyboards" style="rounded=0;whiteSpace=wrap;html=1;fontSize=24;" parent="1" vertex="1">
                    <mxGeometry x="50" y="515" width="740" height="60" as="geometry"/>
                </mxCell>
                <mxCell id="GxjmC_2MhTYPyJpv6Yr3-8" value="Mouse" style="rounded=0;whiteSpace=wrap;html=1;fontSize=24;" parent="1" vertex="1">
                    <mxGeometry x="45" y="820" width="750" height="60" as="geometry"/>
                </mxCell>
                <mxCell id="GxjmC_2MhTYPyJpv6Yr3-9" value="Accesories" style="rounded=0;whiteSpace=wrap;html=1;fontSize=24;" parent="1" vertex="1">
                    <mxGeometry x="57.5" y="1130" width="730" height="60" as="geometry"/>
                </mxCell>
                <mxCell id="GxjmC_2MhTYPyJpv6Yr3-10" value="More" style="text;html=1;strokeColor=none;fillColor=none;align=center;verticalAlign=middle;whiteSpace=wrap;rounded=0;fontSize=24;" parent="1" vertex="1">
                    <mxGeometry x="700" y="220" width="60" height="30" as="geometry"/>
                </mxCell>
                <mxCell id="GxjmC_2MhTYPyJpv6Yr3-11" value="More" style="text;html=1;strokeColor=none;fillColor=none;align=center;verticalAlign=middle;whiteSpace=wrap;rounded=0;fontSize=24;" parent="1" vertex="1">
                    <mxGeometry x="700" y="515" width="60" height="30" as="geometry"/>
                </mxCell>
                <mxCell id="GxjmC_2MhTYPyJpv6Yr3-12" value="More" style="text;html=1;strokeColor=none;fillColor=none;align=center;verticalAlign=middle;whiteSpace=wrap;rounded=0;fontSize=24;" parent="1" vertex="1">
                    <mxGeometry x="710" y="835" width="60" height="30" as="geometry"/>
                </mxCell>
                <mxCell id="GxjmC_2MhTYPyJpv6Yr3-14" value="More" style="text;html=1;strokeColor=none;fillColor=none;align=center;verticalAlign=middle;whiteSpace=wrap;rounded=0;fontSize=24;" parent="1" vertex="1">
                    <mxGeometry x="700" y="1040" width="60" height="30" as="geometry"/>
                </mxCell>
                <mxCell id="My4nLvRBAnZCMKATsBSD-1" value="" style="whiteSpace=wrap;html=1;aspect=fixed;fontSize=24;" parent="1" vertex="1">
                    <mxGeometry x="100" y="290" width="210" height="210" as="geometry"/>
                </mxCell>
                <mxCell id="My4nLvRBAnZCMKATsBSD-2" value="" style="whiteSpace=wrap;html=1;aspect=fixed;fontSize=24;" parent="1" vertex="1">
                    <mxGeometry x="320" y="290" width="210" height="210" as="geometry"/>
                </mxCell>
                <mxCell id="My4nLvRBAnZCMKATsBSD-3" value="" style="whiteSpace=wrap;html=1;aspect=fixed;fontSize=24;" parent="1" vertex="1">
                    <mxGeometry x="550" y="290" width="210" height="210" as="geometry"/>
                </mxCell>
                <mxCell id="My4nLvRBAnZCMKATsBSD-4" value="" style="triangle;whiteSpace=wrap;html=1;fontSize=24;" parent="1" vertex="1">
                    <mxGeometry x="770" y="372.5" width="30" height="45" as="geometry"/>
                </mxCell>
                <mxCell id="My4nLvRBAnZCMKATsBSD-5" value="" style="triangle;whiteSpace=wrap;html=1;fontSize=24;rotation=-180;" parent="1" vertex="1">
                    <mxGeometry x="50" y="372.5" width="30" height="45" as="geometry"/>
                </mxCell>
                <mxCell id="My4nLvRBAnZCMKATsBSD-7" value="" style="triangle;whiteSpace=wrap;html=1;fontSize=24;" parent="1" vertex="1">
                    <mxGeometry x="770" y="672.5" width="30" height="45" as="geometry"/>
                </mxCell>
                <mxCell id="My4nLvRBAnZCMKATsBSD-8" value="" style="triangle;whiteSpace=wrap;html=1;fontSize=24;rotation=-180;" parent="1" vertex="1">
                    <mxGeometry x="50" y="672.5" width="30" height="45" as="geometry"/>
                </mxCell>
                <mxCell id="My4nLvRBAnZCMKATsBSD-9" value="" style="whiteSpace=wrap;html=1;aspect=fixed;fontSize=24;" parent="1" vertex="1">
                    <mxGeometry x="100" y="590" width="210" height="210" as="geometry"/>
                </mxCell>
                <mxCell id="My4nLvRBAnZCMKATsBSD-10" value="" style="whiteSpace=wrap;html=1;aspect=fixed;fontSize=24;" parent="1" vertex="1">
                    <mxGeometry x="330" y="590" width="210" height="210" as="geometry"/>
                </mxCell>
                <mxCell id="My4nLvRBAnZCMKATsBSD-11" value="" style="whiteSpace=wrap;html=1;aspect=fixed;fontSize=24;" parent="1" vertex="1">
                    <mxGeometry x="550" y="590" width="210" height="210" as="geometry"/>
                </mxCell>
                <mxCell id="My4nLvRBAnZCMKATsBSD-13" value="" style="triangle;whiteSpace=wrap;html=1;fontSize=24;" parent="1" vertex="1">
                    <mxGeometry x="770" y="972.5" width="30" height="45" as="geometry"/>
                </mxCell>
                <mxCell id="My4nLvRBAnZCMKATsBSD-14" value="" style="triangle;whiteSpace=wrap;html=1;fontSize=24;rotation=-180;" parent="1" vertex="1">
                    <mxGeometry x="50" y="972.5" width="30" height="45" as="geometry"/>
                </mxCell>
                <mxCell id="My4nLvRBAnZCMKATsBSD-15" value="" style="whiteSpace=wrap;html=1;aspect=fixed;fontSize=24;" parent="1" vertex="1">
                    <mxGeometry x="100" y="890" width="210" height="210" as="geometry"/>
                </mxCell>
                <mxCell id="My4nLvRBAnZCMKATsBSD-16" value="" style="whiteSpace=wrap;html=1;aspect=fixed;fontSize=24;" parent="1" vertex="1">
                    <mxGeometry x="330" y="890" width="210" height="210" as="geometry"/>
                </mxCell>
                <mxCell id="My4nLvRBAnZCMKATsBSD-17" value="" style="whiteSpace=wrap;html=1;aspect=fixed;fontSize=24;" parent="1" vertex="1">
                    <mxGeometry x="550" y="890" width="210" height="210" as="geometry"/>
                </mxCell>
                <mxCell id="My4nLvRBAnZCMKATsBSD-18" value="" style="triangle;whiteSpace=wrap;html=1;fontSize=24;" parent="1" vertex="1">
                    <mxGeometry x="760" y="1292.5" width="30" height="45" as="geometry"/>
                </mxCell>
                <mxCell id="My4nLvRBAnZCMKATsBSD-19" value="" style="triangle;whiteSpace=wrap;html=1;fontSize=24;rotation=-180;" parent="1" vertex="1">
                    <mxGeometry x="40" y="1292.5" width="30" height="45" as="geometry"/>
                </mxCell>
                <mxCell id="My4nLvRBAnZCMKATsBSD-20" value="" style="whiteSpace=wrap;html=1;aspect=fixed;fontSize=24;" parent="1" vertex="1">
                    <mxGeometry x="90" y="1210" width="210" height="210" as="geometry"/>
                </mxCell>
                <mxCell id="My4nLvRBAnZCMKATsBSD-21" value="" style="whiteSpace=wrap;html=1;aspect=fixed;fontSize=24;" parent="1" vertex="1">
                    <mxGeometry x="320" y="1210" width="210" height="210" as="geometry"/>
                </mxCell>
                <mxCell id="My4nLvRBAnZCMKATsBSD-22" value="" style="whiteSpace=wrap;html=1;aspect=fixed;fontSize=24;" parent="1" vertex="1">
                    <mxGeometry x="540" y="1210" width="210" height="210" as="geometry"/>
                </mxCell>
            </root>
        </mxGraphModel>
    </diagram>
</mxfile>